<svg width="170" height="31" viewBox="0 0 170 31" fill="none" xmlns="http://www.w3.org/2000/svg">
<g filter="url(#filter0_d_1_214)">
<path d="M13.9251 3.85982C14.225 2.93955 15.5269 2.93955 15.8267 3.85982L17.5778 9.23422C17.7119 9.64585 18.0957 9.92443 18.5286 9.92443H24.1894C25.1588 9.92443 25.5611 11.1655 24.7761 11.7342L20.2012 15.0489C19.8498 15.3035 19.7027 15.7558 19.8371 16.1684L21.5857 21.5351C21.8857 22.4559 20.8325 23.2229 20.0482 22.6547L15.4626 19.3323C15.1126 19.0787 14.6392 19.0787 14.2892 19.3323L9.70366 22.6547C8.91941 23.2229 7.86612 22.4559 8.16614 21.5351L9.91471 16.1684C10.0492 15.7558 9.90209 15.3035 9.55063 15.0489L4.97575 11.7342C4.19075 11.1655 4.59308 9.92443 5.56247 9.92443H11.2232C11.6562 9.92443 12.0399 9.64585 12.174 9.23422L13.9251 3.85982Z" fill="#070707"/>
<path d="M49.0221 3.85982C49.322 2.93955 50.6239 2.93955 50.9237 3.85982L52.6748 9.23422C52.8089 9.64585 53.1927 9.92443 53.6256 9.92443H59.2864C60.2558 9.92443 60.6581 11.1655 59.8731 11.7342L55.2982 15.0489C54.9468 15.3035 54.7997 15.7558 54.9341 16.1684L56.6827 21.5351C56.9827 22.4559 55.9294 23.2229 55.1452 22.6547L50.5596 19.3323C50.2096 19.0787 49.7362 19.0787 49.3862 19.3323L44.8006 22.6547C44.0164 23.2229 42.9631 22.4559 43.2631 21.5351L45.0117 16.1684C45.1462 15.7558 44.9991 15.3035 44.6476 15.0489L40.0727 11.7342C39.2877 11.1655 39.6901 9.92443 40.6595 9.92443H46.3202C46.7531 9.92443 47.1369 9.64585 47.271 9.23422L49.0221 3.85982Z" fill="#070707"/>
<path d="M84.1193 3.85982C84.4192 2.93955 85.7211 2.93955 86.0209 3.85982L87.772 9.23422C87.9062 9.64585 88.2899 9.92443 88.7228 9.92443H94.3836C95.353 9.92443 95.7553 11.1655 94.9703 11.7342L90.3954 15.0489C90.044 15.3035 89.8969 15.7558 90.0314 16.1684L91.7799 21.5351C92.08 22.4559 91.0267 23.2229 90.2424 22.6547L85.6569 19.3323C85.3068 19.0787 84.8335 19.0787 84.4834 19.3323L79.8979 22.6547C79.1136 23.2229 78.0603 22.4559 78.3604 21.5351L80.1089 16.1684C80.2434 15.7558 80.0963 15.3035 79.7448 15.0489L75.17 11.7342C74.385 11.1655 74.7873 9.92443 75.7567 9.92443H81.4174C81.8504 9.92443 82.2341 9.64585 82.3682 9.23422L84.1193 3.85982Z" fill="#E5E5E5"/>
<path d="M119.216 3.85982C119.516 2.93955 120.818 2.93955 121.118 3.85982L122.869 9.23422C123.003 9.64585 123.387 9.92443 123.82 9.92443H129.481C130.45 9.92443 130.852 11.1655 130.067 11.7342L125.492 15.0489C125.141 15.3035 124.994 15.7558 125.128 16.1684L126.877 21.5351C127.177 22.4559 126.124 23.2229 125.339 22.6547L120.754 19.3323C120.404 19.0787 119.931 19.0787 119.58 19.3323L114.995 22.6547C114.211 23.2229 113.157 22.4559 113.457 21.5351L115.206 16.1684C115.34 15.7558 115.193 15.3035 114.842 15.0489L110.267 11.7342C109.482 11.1655 109.884 9.92443 110.854 9.92443H116.514C116.947 9.92443 117.331 9.64585 117.465 9.23422L119.216 3.85982Z" fill="#E5E5E5"/>
<path d="M154.314 3.85982C154.613 2.93955 155.915 2.93955 156.215 3.85982L157.966 9.23422C158.1 9.64585 158.484 9.92443 158.917 9.92443H164.578C165.547 9.92443 165.95 11.1655 165.165 11.7342L160.59 15.0489C160.238 15.3035 160.091 15.7558 160.226 16.1684L161.974 21.5351C162.274 22.4559 161.221 23.2229 160.437 22.6547L155.851 19.3323C155.501 19.0787 155.028 19.0787 154.678 19.3323L150.092 22.6547C149.308 23.2229 148.255 22.4559 148.555 21.5351L150.303 16.1684C150.438 15.7558 150.291 15.3035 149.939 15.0489L145.364 11.7342C144.579 11.1655 144.982 9.92443 145.951 9.92443H151.612C152.045 9.92443 152.428 9.64585 152.562 9.23422L154.314 3.85982Z" fill="#E5E5E5"/>
</g>
<defs>
<filter id="filter0_d_1_214" x="0.560547" y="3.16962" width="169.019" height="27.6798" filterUnits="userSpaceOnUse" color-interpolation-filters="sRGB">
<feFlood flood-opacity="0" result="BackgroundImageFix"/>
<feColorMatrix in="SourceAlpha" type="matrix" values="0 0 0 0 0 0 0 0 0 0 0 0 0 0 0 0 0 0 127 0" result="hardAlpha"/>
<feOffset dy="4"/>
<feGaussianBlur stdDeviation="2"/>
<feComposite in2="hardAlpha" operator="out"/>
<feColorMatrix type="matrix" values="0 0 0 0 0 0 0 0 0 0 0 0 0 0 0 0 0 0 0.25 0"/>
<feBlend mode="normal" in2="BackgroundImageFix" result="effect1_dropShadow_1_214"/>
<feBlend mode="normal" in="SourceGraphic" in2="effect1_dropShadow_1_214" result="shape"/>
</filter>
</defs>
</svg>
